<svg class="thumb" width="1000" height="1000" viewBox="0,0,600,600" xmlns="http://www.w3.org/2000/svg" xmlns:inkscape="http://www.inkscape.org/namespaces/inkscape" xmlns:sodipodi="http://sodipodi.sourceforge.net/DTD/sodipodi-0.dtd" xmlns:xlink="http://www.w3.org/1999/xlink" xmlns:ns1="http://www.inkscape.org/namespaces/inkscape" xmlns:sketch="http://www.bohemiancoding.com/sketch/ns">
  <defs></defs>
  <g transform="matrix(0.5682,0,0,0.5682,-45.4399,199.3489)">
    <g transform="matrix(2.3129,-1.4452,1.4452,2.3129,167.8489,168.5885)">
      <svg width="24.020886492243985" height="24" viewBox="9.161556753878006,37.464,24.020886492243985,24">
        <defs>
          <linearGradient x1="0" y1="0.5" x2="1" y2="0.5" id="linearGradientSk49mwp7o4">
            <stop offset="0%" stop-color="#f2af58" stop-opacity="0.78"></stop>
            <stop offset="100%" stop-color="#f2af58" stop-opacity="0.78"></stop>
          </linearGradient>
        </defs>
        <g></g>
        <g>
          <circle fill="url('#linearGradientSk49mwp7o4')" cx="21.172" cy="49.464" r="7" stroke="none" style=""></circle>
        </g>
      </svg>
    </g>
    <g transform="matrix(2.3129,-1.4452,1.4452,2.3129,300.8489,84.5885)">
      <svg width="24.020886492243974" height="24" viewBox="66.81755675387801,37.464,24.020886492243974,24">
        <defs>
          <linearGradient x1="0" y1="0.5" x2="1" y2="0.5" id="linearGradientSk49mwp7oa">
            <stop offset="0%" stop-color="#f2af58"></stop>
            <stop offset="100%" stop-color="#f2af58"></stop>
          </linearGradient>
        </defs>
        <g></g>
        <g>
          <circle fill="url('#linearGradientSk49mwp7oa')" cx="78.828" cy="49.464" r="7" stroke="none" style=""></circle>
        </g>
      </svg>
    </g>
    <g transform="matrix(2.3129,-1.4452,1.4452,2.3129,117.0419,157.7874)">
      <svg width="109.00200000000001" height="51.345" viewBox="-4.5,23.792,109.00200000000001,51.345">
        <defs>
          <linearGradient x1="0" y1="0.5" x2="1" y2="0.5" id="linearGradientSk49mwp7og">
            <stop offset="0%" stop-color="#74d14c"></stop>
            <stop offset="100%" stop-color="#74d14c"></stop>
          </linearGradient>
        </defs>
        <g></g>
        <g>
          <path fill="url('#linearGradientSk49mwp7og')" d="M99.457,48.606c-0.453-11.016-9.502-19.814-20.629-19.814c-2.979,0-5.804,0.643-8.362,1.777  c-0.008-0.001-0.016-0.003-0.023-0.004c-5.47,2.749-12.158,5.269-19.942,5.269c-7.762,0-15.113-1.989-20.699-5.241  c-0.052,0.01-0.103,0.021-0.154,0.03c-2.588-1.166-5.451-1.831-8.474-1.831c-11.133,0-20.186,8.808-20.63,19.832  C0.516,48.902,0.5,49.183,0.5,49.464c0,0.275,0.016,0.551,0.042,0.825c0.437,11.031,9.492,19.848,20.631,19.848  c2.647,0,5.17-0.517,7.497-1.424c0.012,0.003,0.023,0.006,0.035,0.008c0.059-0.028,0.119-0.057,0.178-0.085  c0.833-0.336,1.639-0.721,2.414-1.158c5.129-2.452,11.022-5.051,17.918-5.051c7.568,0,14.097,2.374,19.608,5.121  c0.263,0.146,0.536,0.273,0.805,0.407c0.232,0.119,0.466,0.238,0.694,0.358c0.012-0.002,0.023-0.005,0.035-0.007  c2.588,1.166,5.45,1.83,8.473,1.83c11.134,0,20.186-8.809,20.63-19.834c0.026-0.278,0.042-0.558,0.042-0.839  C99.5,49.177,99.483,48.891,99.457,48.606z M21.173,63.466c-7.733,0-14.001-6.27-14.001-14.003c0-7.73,6.269-14,14.001-14  c7.731,0,13.999,6.27,13.999,14C35.172,57.196,28.905,63.466,21.173,63.466z M78.828,63.464c-7.73,0-14-6.267-14-14  c0-7.729,6.27-14,14-14c7.733,0,14,6.271,14,14C92.828,57.197,86.562,63.464,78.828,63.464z" stroke="none" style=""></path>
        </g>
      </svg>
    </g>
    <g transform="matrix(2.2873,1.4854,-1.4854,2.2873,201.3232,125.7281)">
      <svg width="24.020886492243985" height="24" viewBox="9.161556753878006,37.464,24.020886492243985,24">
        <defs>
          <linearGradient x1="0" y1="0.5" x2="1" y2="0.5" id="linearGradientSk49mwp7om">
            <stop offset="0%" stop-color="#a55fc1" stop-opacity="0.63"></stop>
            <stop offset="100%" stop-color="#a55fc1" stop-opacity="0.63"></stop>
          </linearGradient>
        </defs>
        <g></g>
        <g>
          <circle fill="url('#linearGradientSk49mwp7om')" cx="21.172" cy="49.464" r="7" stroke="none" style=""></circle>
        </g>
      </svg>
    </g>
    <g transform="matrix(2.2873,1.4854,-1.4854,2.2873,333.3232,211.7281)">
      <svg width="24.020886492243974" height="24" viewBox="66.81755675387801,37.464,24.020886492243974,24">
        <defs>
          <linearGradient x1="0" y1="0.5" x2="1" y2="0.5" id="linearGradientSk49mwp7os">
            <stop offset="0%" stop-color="#a55fc1" stop-opacity="0.631373"></stop>
            <stop offset="100%" stop-color="#a55fc1" stop-opacity="0.631373"></stop>
          </linearGradient>
        </defs>
        <g></g>
        <g>
          <circle fill="url('#linearGradientSk49mwp7os')" cx="78.828" cy="49.464" r="7" stroke="none" style=""></circle>
        </g>
      </svg>
    </g>
    <g transform="matrix(2.2873,1.4854,-1.4854,2.2873,190.1663,74.7212)">
      <svg width="109.00200000000001" height="51.345" viewBox="-4.5,23.792,109.00200000000001,51.345">
        <defs>
          <linearGradient x1="0" y1="0.5" x2="1" y2="0.5" id="linearGradientSk49mwp7oy">
            <stop offset="0%" stop-color="#1761a0" stop-opacity="0.7"></stop>
            <stop offset="100%" stop-color="#1761a0" stop-opacity="0.7"></stop>
          </linearGradient>
        </defs>
        <g></g>
        <g>
          <path fill="url('#linearGradientSk49mwp7oy')" d="M99.457,48.606c-0.453-11.016-9.502-19.814-20.629-19.814c-2.979,0-5.804,0.643-8.362,1.777  c-0.008-0.001-0.016-0.003-0.023-0.004c-5.47,2.749-12.158,5.269-19.942,5.269c-7.762,0-15.113-1.989-20.699-5.241  c-0.052,0.01-0.103,0.021-0.154,0.03c-2.588-1.166-5.451-1.831-8.474-1.831c-11.133,0-20.186,8.808-20.63,19.832  C0.516,48.902,0.5,49.183,0.5,49.464c0,0.275,0.016,0.551,0.042,0.825c0.437,11.031,9.492,19.848,20.631,19.848  c2.647,0,5.17-0.517,7.497-1.424c0.012,0.003,0.023,0.006,0.035,0.008c0.059-0.028,0.119-0.057,0.178-0.085  c0.833-0.336,1.639-0.721,2.414-1.158c5.129-2.452,11.022-5.051,17.918-5.051c7.568,0,14.097,2.374,19.608,5.121  c0.263,0.146,0.536,0.273,0.805,0.407c0.232,0.119,0.466,0.238,0.694,0.358c0.012-0.002,0.023-0.005,0.035-0.007  c2.588,1.166,5.45,1.83,8.473,1.83c11.134,0,20.186-8.809,20.63-19.834c0.026-0.278,0.042-0.558,0.042-0.839  C99.5,49.177,99.483,48.891,99.457,48.606z M21.173,63.466c-7.733,0-14.001-6.27-14.001-14.003c0-7.73,6.269-14,14.001-14  c7.731,0,13.999,6.27,13.999,14C35.172,57.196,28.905,63.466,21.173,63.466z M78.828,63.464c-7.73,0-14-6.267-14-14  c0-7.729,6.27-14,14-14c7.733,0,14,6.271,14,14C92.828,57.197,86.562,63.464,78.828,63.464z" stroke="none" style=""></path>
        </g>
      </svg>
    </g>
    <g transform="matrix(1.2661,0,0,1.2661,428.9989,95.7476)">
      <svg width="520.80078125" height="187" style="overflow: visible;">
        <defs>
          <linearGradient x1="0" y1="0.5" x2="1" y2="0.5" id="linearGradientSk49mwp7o16">
            <stop offset="0%" stop-color="#1761a0" stop-opacity="0.701961"></stop>
            <stop offset="100%" stop-color="#1761a0" stop-opacity="0.701961"></stop>
          </linearGradient>
        </defs>
        <g transform="matrix(1,0,0,1,0,95.25)">
          <path d="M 50.29-47.17L 45.02-40.82Q 43.55-42.58  40.97-44.09Q 38.38-45.61  34.08-45.9L 34.08-45.9L 34.08-55.27Q 39.45-54.98  43.31-52.98Q 47.17-50.98  50.29-47.17L 50.29-47.17ZM 34.08 0.39L 34.08-9.28Q 37.6-9.67  40.09-10.99Q 42.58-12.3  44.82-14.06L 44.82-14.06L 49.22-7.71Q 46.19-3.91  42.68-1.9Q 39.16 0.1  34.08 0.39L 34.08 0.39ZM 6.84-27.54L 6.84-27.54Q 6.84-33.11  8.45-37.99Q 10.06-42.87  13.18-46.58Q 16.31-50.29  20.56-52.59Q 24.8-54.88  30.08-55.27L 30.08-55.27L 30.08-45.8Q 25.2-44.73  22.27-39.79Q 19.34-34.86  19.34-27.83L 19.34-27.83Q 19.34-24.22  20.07-21.04Q 20.8-17.87  22.17-15.43Q 23.54-12.99  25.54-11.33Q 27.54-9.67  30.08-9.28L 30.08-9.28L 30.08 0.39Q 24.71 0.1  20.41-2.2Q 16.11-4.49  13.09-8.25Q 10.06-12.01  8.45-16.99Q 6.84-21.97  6.84-27.54ZM 74.610625-16.6L 74.610625-16.6Q 74.610625-12.21  76.420625-10.06Q 78.220625-7.91  81.640625-7.52L 81.640625-7.52L 81.640625 0.39Q 81.250625 0.49  80.370625 0.49L 80.370625 0.49Q 77.050625 0.49  73.970625-0.39Q 70.900625-1.27  68.550625-3.22Q 66.210625-5.18  64.890625-8.4Q 63.570625-11.62  63.570625-16.31L 63.570625-16.31Q 63.570625-20.8  65.480625-24.07Q 67.380625-27.34  70.360625-29.44Q 73.340625-31.54  77.150625-32.57Q 80.960625-33.59  84.860625-33.59L 84.860625-33.59L 89.16062500000001-33.59L 89.16062500000001-26.66L 87.010625-26.66Q 85.060625-26.66  82.910625-26.27Q 80.760625-25.88  78.910625-24.8Q 77.050625-23.73  75.830625-21.73Q 74.610625-19.73  74.610625-16.6ZM 104.980625-17.09L 104.980625-16.31Q 104.980625-15.53  105.080625-14.01Q 105.18062499999999-12.5  105.470625-10.94Q 105.760625-9.38  106.40062499999999-8.11Q 107.030625-6.84  108.10062500000001-6.45L 108.10062500000001-6.45L 104.980625 0.1Q 103.710625 0.1  102.290625-0.49Q 100.88062500000001-1.07  99.560625-2.15Q 98.240625-3.22  97.310625-4.54Q 96.390625-5.86  95.90062499999999-7.42L 95.90062499999999-7.42Q 94.920625-4.98  92.040625-3.08Q 89.16062500000001-1.17  85.640625-0.29L 85.640625-0.29L 85.640625-7.71Q 87.990625-8.2  89.890625-9.62Q 91.800625-11.04  93.16062500000001-12.99L 93.16062500000001-12.99L 93.16062500000001-33.59Q 93.16062500000001-38.38  92.68062499999999-41.21Q 92.190625-44.04  91.020625-45.36Q 89.840625-46.68  88.130625-47.02Q 86.43062499999999-47.36  84.080625-47.36L 84.080625-47.36Q 81.93062499999999-47.36  80.030625-46.83Q 78.120625-46.29  76.510625-45.56Q 74.900625-44.82  73.68062499999999-43.95Q 72.460625-43.07  71.870625-42.58L 71.870625-42.58L 67.480625-49.32Q 68.460625-50.39  70.410625-51.51Q 72.360625-52.64  74.900625-53.52Q 77.440625-54.39  80.420625-54.93Q 83.400625-55.47  86.620625-55.47L 86.620625-55.47Q 89.550625-55.47  92.330625-54.88Q 95.12062499999999-54.3  97.41062500000001-52.93Q 99.710625-51.56  101.420625-49.27Q 103.12062499999999-46.97  103.810625-43.55L 103.810625-43.55Q 104.490625-40.14  104.740625-36.67Q 104.980625-33.2  104.980625-29.79L 104.980625-29.79L 104.980625-17.09ZM 123.634375-55.08L 134.184375-55.08L 135.444375-49.41L 135.444375-19.53L 135.444375-19.34L 135.444375 0L 123.634375 0L 123.634375-55.08ZM 139.454375-42.68L 139.454375-52.64Q 141.894375-54  145.31437499999998-54.74Q 148.734375-55.47  154.594375-55.47L 154.594375-55.47L 154.594375-43.16Q 151.854375-43.95  147.944375-44.04L 147.944375-44.04Q 145.804375-44.04  143.604375-43.7Q 141.40437500000002-43.36  139.454375-42.68L 139.454375-42.68ZM 209.0790625-47.17L 203.8090625-40.82Q 202.3390625-42.58  199.7590625-44.09Q 197.1690625-45.61  192.86906249999998-45.9L 192.86906249999998-45.9L 192.86906249999998-55.27Q 198.2390625-54.98  202.0990625-52.98Q 205.95906250000002-50.98  209.0790625-47.17L 209.0790625-47.17ZM 192.86906249999998 0.39L 192.86906249999998-9.28Q 196.3890625-9.67  198.8790625-10.99Q 201.36906249999998-12.3  203.6090625-14.06L 203.6090625-14.06L 208.0090625-7.71Q 204.9790625-3.91  201.4690625-1.9Q 197.9490625 0.1  192.86906249999998 0.39L 192.86906249999998 0.39ZM 165.6290625-27.54L 165.6290625-27.54Q 165.6290625-33.11  167.2390625-37.99Q 168.8490625-42.87  171.9690625-46.58Q 175.0990625-50.29  179.3490625-52.59Q 183.5890625-54.88  188.86906249999998-55.27L 188.86906249999998-55.27L 188.86906249999998-45.8Q 183.9890625-44.73  181.0590625-39.79Q 178.1290625-34.86  178.1290625-27.83L 178.1290625-27.83Q 178.1290625-24.22  178.8590625-21.04Q 179.5890625-17.87  180.95906250000002-15.43Q 182.3290625-12.99  184.3290625-11.33Q 186.3290625-9.67  188.86906249999998-9.28L 188.86906249999998-9.28L 188.86906249999998 0.39Q 183.4990625 0.1  179.1990625-2.2Q 174.8990625-4.49  171.8790625-8.25Q 168.8490625-12.01  167.2390625-16.99Q 165.6290625-21.97  165.6290625-27.54ZM 235.83796874999996-55.08L 235.83796874999996-25.1Q 235.83796874999996-21.68  236.12796874999995-18.7Q 236.42796874999993-15.72  237.39796874999993-13.48Q 238.37796874999995-11.23  240.32796874999994-9.86Q 242.28796874999995-8.5  245.50796874999995-8.5L 245.50796874999995-8.5Q 246.77796874999996-8.5  249.11796874999993-8.89Q 251.46796874999995-9.28  253.61796874999993-10.16L 253.61796874999993-10.16L 253.61796874999993-2.93Q 251.07796874999994-1.56  248.09796874999995-0.54Q 245.11796874999993 0.49  242.18796874999995 0.49L 242.18796874999995 0.49Q 239.84796874999995 0.49  237.98796874999994 0.05Q 236.12796874999995-0.39  234.51796874999994-1.32Q 232.90796874999995-2.25  231.44796874999994-3.42Q 229.97796874999995-4.59  228.51796874999994-6.05L 228.51796874999994-6.05Q 226.85796874999994-7.71  225.87796874999995-9.91Q 224.89796874999993-12.11  224.45796874999994-14.5Q 224.02796874999996-16.89  223.97796874999995-19.34Q 223.92796874999993-21.78  223.92796874999993-24.12L 223.92796874999993-24.12L 223.92796874999993-55.08L 235.83796874999996-55.08ZM 257.61796874999993-55.08L 269.52796874999996-55.08L 269.52796874999996 0L 258.8879687499999 0L 257.61796874999993-5.66L 257.61796874999993-55.08ZM 297.85437499999995-75.88L 297.85437499999995-16.8Q 297.85437499999995-13.48  298.73437499999994-11.57Q 299.61437499999994-9.67  301.17437499999994-8.74Q 302.73437499999994-7.81  304.73437499999994-7.52Q 306.73437499999994-7.23  309.08437499999997-7.23L 309.08437499999997-7.23L 309.08437499999997 0Q 307.8143749999999 0.2  306.4443749999999 0.29L 306.4443749999999 0.29Q 305.37437499999993 0.39  303.90437499999996 0.44Q 302.4443749999999 0.49  300.97437499999995 0.49L 300.97437499999995 0.49Q 299.514375 0.49  298.04437499999995 0.39Q 296.58437499999997 0.29  295.41437499999995 0.1L 295.41437499999995 0.1Q 292.09437499999996-0.59  290.23437499999994-2.83Q 288.37437499999993-5.08  287.40437499999996-7.86Q 286.42437499999994-10.64  286.18437499999993-13.28Q 285.93437499999993-15.92  285.93437499999993-17.38L 285.93437499999993-17.38L 285.93437499999993-18.55L 285.93437499999993-75.88L 297.85437499999995-75.88ZM 331.1535937499999-16.6L 331.1535937499999-16.6Q 331.1535937499999-12.21  332.96359375-10.06Q 334.7635937499999-7.91  338.18359374999994-7.52L 338.18359374999994-7.52L 338.18359374999994 0.39Q 337.79359374999996 0.49  336.91359374999996 0.49L 336.91359374999996 0.49Q 333.59359374999997 0.49  330.5135937499999-0.39Q 327.44359374999993-1.27  325.09359374999997-3.22Q 322.75359374999994-5.18  321.43359374999994-8.4Q 320.11359374999995-11.62  320.11359374999995-16.31L 320.11359374999995-16.31Q 320.11359374999995-20.8  322.0235937499999-24.07Q 323.92359374999995-27.34  326.90359374999997-29.44Q 329.88359374999993-31.54  333.69359374999993-32.57Q 337.50359374999994-33.59  341.4035937499999-33.59L 341.4035937499999-33.59L 345.7035937499999-33.59L 345.7035937499999-26.66L 343.55359374999995-26.66Q 341.60359374999996-26.66  339.4535937499999-26.27Q 337.30359374999995-25.88  335.4535937499999-24.8Q 333.59359374999997-23.73  332.37359374999994-21.73Q 331.1535937499999-19.73  331.1535937499999-16.6ZM 361.5235937499999-17.09L 361.5235937499999-16.31Q 361.5235937499999-15.53  361.62359374999994-14.01Q 361.72359374999996-12.5  362.0135937499999-10.94Q 362.30359374999995-9.38  362.94359374999993-8.11Q 363.57359374999993-6.84  364.6435937499999-6.45L 364.6435937499999-6.45L 361.5235937499999 0.1Q 360.25359374999994 0.1  358.8335937499999-0.49Q 357.42359374999995-1.07  356.10359374999996-2.15Q 354.78359374999997-3.22  353.85359374999996-4.54Q 352.93359374999994-5.86  352.44359374999993-7.42L 352.44359374999993-7.42Q 351.46359375-4.98  348.5835937499999-3.08Q 345.7035937499999-1.17  342.18359374999994-0.29L 342.18359374999994-0.29L 342.18359374999994-7.71Q 344.53359374999997-8.2  346.43359374999994-9.62Q 348.34359374999997-11.04  349.7035937499999-12.99L 349.7035937499999-12.99L 349.7035937499999-33.59Q 349.7035937499999-38.38  349.22359374999996-41.21Q 348.73359374999995-44.04  347.56359374999994-45.36Q 346.38359374999993-46.68  344.67359374999995-47.02Q 342.97359374999996-47.36  340.62359374999994-47.36L 340.62359374999994-47.36Q 338.47359374999996-47.36  336.57359374999993-46.83Q 334.66359374999996-46.29  333.05359374999995-45.56Q 331.44359374999993-44.82  330.22359374999996-43.95Q 329.00359374999994-43.07  328.41359374999996-42.58L 328.41359374999996-42.58L 324.0235937499999-49.32Q 325.00359374999994-50.39  326.9535937499999-51.51Q 328.90359374999997-52.64  331.44359374999993-53.52Q 333.98359374999995-54.39  336.96359375-54.93Q 339.94359374999993-55.47  343.16359374999996-55.47L 343.16359374999996-55.47Q 346.09359374999997-55.47  348.87359374999994-54.88Q 351.66359374999996-54.3  353.9535937499999-52.93Q 356.25359374999994-51.56  357.96359375-49.27Q 359.66359374999996-46.97  360.35359374999996-43.55L 360.35359374999996-43.55Q 361.03359374999997-40.14  361.28359374999997-36.67Q 361.5235937499999-33.2  361.5235937499999-29.79L 361.5235937499999-29.79L 361.5235937499999-17.09ZM 395.89734374999995-47.07L 395.89734374999995-16.7Q 395.89734374999995-13.38  396.77734374999994-11.52Q 397.65734374999994-9.67  399.26734374999995-8.69Q 400.87734374999997-7.71  402.87734374999997-7.47Q 404.88734374999996-7.23  407.12734374999997-7.23L 407.12734374999997-7.23L 407.12734374999997 0Q 405.8573437499999 0.2  404.58734374999995 0.29L 404.58734374999995 0.29Q 403.51734374999995 0.39  401.9973437499999 0.44Q 400.4873437499999 0.49  399.02734374999994 0.49L 399.02734374999994 0.49Q 397.55734375 0.49  396.0473437499999 0.39Q 394.52734374999994 0.29  393.45734374999995 0.1L 393.45734374999995 0.1Q 390.13734374999996-0.49  388.27734374999994-2.78Q 386.4273437499999-5.08  385.49734374999997-7.86Q 384.56734374999996-10.64  384.32734374999995-13.28Q 384.07734374999995-15.92  384.07734374999995-17.38L 384.07734374999995-17.38L 384.07734374999995-47.07L 376.8573437499999-47.07L 376.8573437499999-55.08L 384.07734374999995-55.08L 384.07734374999995-70.7L 395.89734374999995-70.7L 395.89734374999995-55.08L 404.68734374999997-55.08L 404.68734374999997-47.07L 395.89734374999995-47.07ZM 446.87765625-46.19L 446.87765625-55.37Q 452.2476562499999-55.08  456.63765624999996-52.78Q 461.03765624999994-50.49  464.01765624999996-46.73Q 466.98765624999993-42.97  468.64765624999995-37.99Q 470.3076562499999-33.01  470.3076562499999-27.34L 470.3076562499999-27.34Q 470.3076562499999-21.68  468.60765624999993-16.75Q 466.89765624999995-11.82  463.8676562499999-8.15Q 460.83765624999995-4.49  456.44765624999997-2.25Q 452.04765624999993 0  446.87765625 0.39L 446.87765625 0.39L 446.87765625-8.98Q 451.75765624999997-10.06  454.83765624999995-15.14Q 457.90765624999995-20.21  457.90765624999995-27.34L 457.90765624999995-27.34Q 457.90765624999995-30.96  457.1776562499999-34.13Q 456.44765624999997-37.3  454.97765624999994-39.84Q 453.51765624999996-42.38  451.46765624999995-44.04Q 449.41765624999994-45.7  446.87765625-46.19L 446.87765625-46.19ZM 419.6276562499999-27.54L 419.6276562499999-27.54Q 419.6276562499999-33.2  421.28765624999994-38.09Q 422.94765624999997-42.97  426.02765624999995-46.63Q 429.09765624999994-50.29  433.39765624999995-52.54Q 437.69765624999997-54.79  442.8676562499999-55.27L 442.8676562499999-55.27L 442.8676562499999-46.19Q 437.98765624999993-45.12  435.0576562499999-40.04Q 432.12765625-34.96  432.12765625-27.83L 432.12765625-27.83Q 432.12765625-24.22  432.85765624999993-21Q 433.59765624999994-17.77  434.95765624999996-15.23Q 436.32765624999996-12.7  438.32765624999996-11.04Q 440.32765624999996-9.38  442.8676562499999-8.98L 442.8676562499999-8.98L 442.8676562499999 0.39Q 437.4976562499999 0  433.20765624999996-2.29Q 428.90765624999995-4.59  425.8776562499999-8.3Q 422.84765624999994-12.01  421.23765624999993-16.99Q 419.6276562499999-21.97  419.6276562499999-27.54ZM 485.64609375-55.08L 496.19609375-55.08L 497.45609375-49.41L 497.45609375-19.53L 497.45609375-19.34L 497.45609375 0L 485.64609375 0L 485.64609375-55.08ZM 501.46609375-42.68L 501.46609375-52.64Q 503.90609375-54  507.32609375-54.74Q 510.74609375-55.47  516.60609375-55.47L 516.60609375-55.47L 516.60609375-43.16Q 513.86609375-43.95  509.95609375-44.04L 509.95609375-44.04Q 507.81609375-44.04  505.61609375-43.7Q 503.41609375-43.36  501.46609375-42.68L 501.46609375-42.68Z" data-textpath="carculator" data-text-anchor="middle" data-font-size="100" data-letterspacing="0" data-side="left" data-offset="0.5" data-dx="0" data-dy="0" data-xmlspace="preserve" data-href="" data-font="Allerta Stencil" data-font-src="/Content/clientfonts/allertastencil.woff" data-font-scale="contain" transform="translate(0,0)" data-x="0" data-y="0" fill="url('#linearGradientSk49mwp7o16')"></path>
        </g>
      </svg>
    </g>
  </g>
</svg>